<svg width="90" height="90" viewBox="0 0 90 90" fill="none" xmlns="http://www.w3.org/2000/svg">
<path d="M13.2617 62.1278C5.70312 62.1278 0 65.4715 0 69.9142V82.2135C0 86.6563 5.70312 90 13.2617 90C20.8203 90 26.5234 86.6563 26.5234 82.2135V69.9142C26.5234 65.4949 20.8203 62.1278 13.2617 62.1278ZM2.73437 73.7958C4.96094 75.6898 8.80859 76.9057 13.2617 76.9057C17.7148 76.9057 21.5625 75.6898 23.7891 73.7958V77.8176C22.2852 79.735 18.3789 81.4185 13.2617 81.4185C8.14453 81.4185 4.25781 79.735 2.73437 77.8176V73.7958ZM13.2617 65.4014C19.6875 65.4014 23.7891 68.067 23.7891 69.9142V71.6446C22.2852 73.5619 18.3789 75.2455 13.2617 75.2455C8.14453 75.2455 4.25781 73.5619 2.73437 71.6446V69.9142C2.73437 68.0904 6.83594 65.4014 13.2617 65.4014ZM13.2617 86.7498C6.83594 86.7498 2.73437 84.0842 2.73437 82.2369V79.9454C4.96094 81.8394 8.80859 83.0553 13.2617 83.0553C17.7148 83.0553 21.5625 81.8394 23.7891 79.9454V82.2369C23.7891 84.0608 19.6875 86.7498 13.2617 86.7498Z" fill="#232020"/>
<path d="M45 49.8285C37.4414 49.8285 31.7383 53.1722 31.7383 57.6149V82.2135C31.7383 86.6562 37.4414 90 45 90C52.5586 90 58.2617 86.6562 58.2617 82.2135V57.6149C58.2617 53.1722 52.5586 49.8285 45 49.8285ZM55.5273 71.6445C54.0234 73.5619 50.1172 75.2455 45 75.2455C39.8828 75.2455 35.9961 73.5619 34.4727 71.6445V67.6227C36.6992 69.5167 40.5469 70.7326 45 70.7326C49.4531 70.7326 53.3008 69.5167 55.5273 67.6227V71.6445ZM55.5273 65.4949C54.0234 67.4123 50.1172 69.0958 45 69.0958C39.8828 69.0958 35.9961 67.4123 34.4727 65.4949V61.4731C36.6992 63.3671 40.5469 64.583 45 64.583C49.4531 64.583 53.3008 63.3671 55.5273 61.4731V65.4949ZM34.4727 73.7958C36.6992 75.6898 40.5469 76.9056 45 76.9056C49.4531 76.9056 53.3008 75.6898 55.5273 73.7958V77.8176C54.0234 79.735 50.1172 81.4185 45 81.4185C39.8828 81.4185 35.9961 79.735 34.4727 77.8176V73.7958ZM45 53.1021C51.4258 53.1021 55.5273 55.7677 55.5273 57.6149V59.3452C54.0234 61.2626 50.1172 62.9462 45 62.9462C39.8828 62.9462 35.9961 61.2626 34.4727 59.3452V57.6149C34.4727 55.7911 38.5742 53.1021 45 53.1021ZM45 86.7498C38.5742 86.7498 34.4727 84.0841 34.4727 82.2369V79.9454C36.6992 81.8394 40.5469 83.0553 45 83.0553C49.4531 83.0553 53.3008 81.8394 55.5273 79.9454V82.2369C55.5273 84.0608 51.4258 86.7498 45 86.7498Z" fill="#232020"/>
<path d="M76.7383 37.5292C69.1797 37.5292 63.4766 40.8729 63.4766 45.3156V82.2135C63.4766 86.6562 69.1797 89.9999 76.7383 89.9999C84.2969 89.9999 90 86.6562 90 82.2135V45.3156C90 40.8729 84.2969 37.5292 76.7383 37.5292ZM87.2656 71.6445C85.7617 73.5619 81.8555 75.2455 76.7383 75.2455C71.6211 75.2455 67.7344 73.5619 66.2109 71.6445V67.6227C68.4375 69.5167 72.2852 70.7326 76.7383 70.7326C81.1914 70.7326 85.0391 69.5167 87.2656 67.6227V71.6445ZM87.2656 65.4949C85.7617 67.4123 81.8555 69.0958 76.7383 69.0958C71.6211 69.0958 67.7344 67.4123 66.2109 65.4949V61.4731C68.4375 63.3671 72.2852 64.583 76.7383 64.583C81.1914 64.583 85.0391 63.3671 87.2656 61.4731V65.4949ZM87.2656 59.3452C85.7617 61.2626 81.8555 62.9462 76.7383 62.9462C71.6211 62.9462 67.7344 61.2626 66.2109 59.3452V55.3234C68.4375 57.2174 72.2852 58.4333 76.7383 58.4333C81.1914 58.4333 85.0391 57.2174 87.2656 55.3234V59.3452ZM87.2656 53.1956C85.7617 55.113 81.8555 56.7965 76.7383 56.7965C71.6211 56.7965 67.7344 55.113 66.2109 53.1956V49.1738C68.4375 51.0678 72.2852 52.2837 76.7383 52.2837C81.1914 52.2837 85.0391 51.0678 87.2656 49.1738V53.1956ZM66.2109 73.7957C68.4375 75.6897 72.2852 76.9056 76.7383 76.9056C81.1914 76.9056 85.0391 75.6897 87.2656 73.7957V77.8176C85.7617 79.7349 81.8555 81.4185 76.7383 81.4185C71.6211 81.4185 67.7344 79.7349 66.2109 77.8176V73.7957ZM76.7383 40.8028C83.1641 40.8028 87.2656 43.4684 87.2656 45.3156V47.0459C85.7617 48.9633 81.8555 50.6469 76.7383 50.6469C71.6211 50.6469 67.7344 48.9633 66.2109 47.0459V45.3156C66.2109 43.4918 70.3125 40.8028 76.7383 40.8028ZM76.7383 86.7498C70.3125 86.7498 66.2109 84.0841 66.2109 82.2369V79.9454C68.4375 81.8394 72.2852 83.0553 76.7383 83.0553C81.1914 83.0553 85.0391 81.8394 87.2656 79.9454V82.2369C87.2656 84.0607 83.1641 86.7498 76.7383 86.7498Z" fill="#232020"/>
<path d="M13.2617 51.3484C16.0352 51.3484 18.3008 48.636 18.3008 45.3157C18.3008 45.152 18.3008 44.9883 18.2812 44.848L40.918 34.8402C41.8359 36.3367 43.3203 37.3188 45 37.3188C47.7734 37.3188 50.0391 34.6064 50.0391 31.286C50.0391 30.6313 49.9609 30.0234 49.8047 29.4388L73.457 10.6157C74.3359 11.5277 75.4883 12.0655 76.7383 12.0655C79.5117 12.0655 81.7773 9.35308 81.7773 6.03274C81.7773 2.71239 79.5117 0 76.7383 0C73.9648 0 71.6992 2.71239 71.6992 6.03274C71.6992 6.68745 71.7773 7.2954 71.9336 7.87997L48.2812 26.703C47.4023 25.7911 46.25 25.2533 45 25.2533C42.2266 25.2533 39.9609 27.9657 39.9609 31.286C39.9609 31.4497 39.9609 31.6134 39.9805 31.7537L17.3438 41.7615C16.4258 40.265 14.9414 39.2829 13.2617 39.2829C10.4883 39.2829 8.22266 41.9953 8.22266 45.3157C8.22266 48.636 10.4883 51.3484 13.2617 51.3484ZM76.7383 3.27358C78.0078 3.27358 79.043 4.51286 79.043 6.03274C79.043 7.55261 78.0078 8.79189 76.7383 8.79189C75.4687 8.79189 74.4336 7.55261 74.4336 6.03274C74.4336 4.51286 75.4687 3.27358 76.7383 3.27358ZM45 28.5503C46.2695 28.5503 47.3047 29.7896 47.3047 31.3094C47.3047 32.8293 46.2695 34.0686 45 34.0686C44.0234 34.0686 43.1836 33.3203 42.8516 32.2915V32.2681C42.8516 32.2681 42.8516 32.2681 42.8516 32.2447C42.7539 31.9408 42.7148 31.6368 42.7148 31.3094C42.6953 29.7896 43.7305 28.5503 45 28.5503ZM13.2617 42.5565C14.5312 42.5565 15.5664 43.7958 15.5664 45.3157C15.5664 46.8355 14.5312 48.0748 13.2617 48.0748C11.9922 48.0748 10.957 46.8355 10.957 45.3157C10.957 43.7958 11.9922 42.5565 13.2617 42.5565Z" fill="#232020"/>
</svg>
