<svg width="55" height="55" viewBox="0 0 55 55" fill="none" xmlns="http://www.w3.org/2000/svg">
<circle cx="27.5" cy="27.5" r="27.5" fill="#151212"/>
<path d="M9.125 32.6L3.1 26.85L9.125 21.125H12L5.95 26.85L12 32.6H9.125ZM28.4422 23.675C28.4422 25.125 27.9422 26.3333 26.9422 27.3C25.9589 28.25 24.4505 28.725 22.4172 28.725H19.0672V36H16.7922V18.575H22.4172C24.3839 18.575 25.8755 19.05 26.8922 20C27.9255 20.95 28.4422 22.175 28.4422 23.675ZM22.4172 26.85C23.6839 26.85 24.6172 26.575 25.2172 26.025C25.8172 25.475 26.1172 24.6917 26.1172 23.675C26.1172 21.525 24.8839 20.45 22.4172 20.45H19.0672V26.85H22.4172ZM39.7697 12.45L32.9197 40.25H30.6697L37.4947 12.45H39.7697ZM43.5844 21.125H46.4594L52.5094 26.85L46.4594 32.6H43.5844L49.6344 26.85L43.5844 21.125Z" fill="white"/>
</svg>
