<svg width="100" height="100" viewBox="0 0 100 100" fill="none" xmlns="http://www.w3.org/2000/svg">
<circle cx="50" cy="50" r="50" fill="black"/>
<path d="M48.9078 30.3123C76.9147 28.9139 87.3989 39.6789 86.3569 50.9681L86.1186 53.4625C86.0543 54.0958 85.8635 54.7098 85.5575 55.2679C85.2514 55.8261 84.8364 56.3171 84.3369 56.7118C83.8375 57.1066 83.2639 57.3969 82.6501 57.5657C82.0363 57.7346 81.3949 57.7784 80.7639 57.6946L71.9685 56.5619C70.7915 56.4102 69.7121 55.8285 68.9382 54.9288C68.1643 54.0291 67.7505 52.875 67.7764 51.6885L67.9219 45.2503C67.9571 43.6397 67.171 42.1246 65.6791 41.5139C62.9081 40.3727 57.5677 38.8561 49.358 39.269C41.1459 39.6797 35.9856 41.719 33.3398 43.1289C31.9165 43.8899 31.2832 45.4737 31.4813 47.075L32.2636 53.4622C32.4078 54.6402 32.1112 55.8299 31.4309 56.8023C30.7506 57.7747 29.7347 58.4612 28.5786 58.7295L19.9292 60.7414C19.3109 60.8882 18.6694 60.9092 18.0428 60.8032C17.4162 60.6972 16.8173 60.4664 16.2817 60.1245C15.746 59.7826 15.2845 59.3365 14.9246 58.8128C14.5646 58.289 14.3136 57.6983 14.1864 57.0757L13.6925 54.5975C11.532 43.4752 20.8966 31.7154 48.9078 30.3123Z" fill="white"/>
</svg>
